# AST/ASF file generated using VICON BodyLanguage
# -----------------------------------------------
:version 1.10
:name VICON
:units
  mass 1.0
  length 0.45
  angle deg
:documentation
   .ast/.asf automatically generated from VICON data using
   VICON BodyBuilder and BodyLanguage model FoxedUp or BRILLIANT.MOD
:root
   order TX TY TZ RX RY RZ
   axis XYZ
   position 0 0 0  
   orientation 0 0 0 
:bonedata
  begin
     id 1 
     name lhipjoint
     direction 0.660183 -0.676772 0.325788 
     length 2.75133 
     axis 0 0 0  XYZ
  end
  begin
     id 2 
     name lfemur
     direction 0.34202 -0.939693 0  
     length 7.70317  
     axis 0 0 20  XYZ
    dof rx ry rz
    limits (-160.0 20.0)
           (-70.0 70.0)
           (-60.0 70.0)
  end
  begin
     id 3 
     name ltibia
     direction 0.342105 -0.939662 0   
     length 7.18701   
     axis 0 0 20   XYZ
    dof rx
    limits (-10.0 170.0)
  end
  begin
     id 4 
     name lfoot
     direction 0.14163 -0.389126 0.910232   
     length 2.41719   
     axis -90 7.62852e-016 20   XYZ
    dof rx rz
    limits (-45.0 90.0)
           (-70.0 20.0)
  end
  begin
     id 5 
     name ltoes
     direction 1.53533e-011 -4.21926e-011 1   
     length 1.18611   
     axis -90 7.62852e-016 20   XYZ
    dof rx
    limits (-90.0 20.0)
  end
  begin
     id 6 
     name rhipjoint
     direction -0.6658 -0.67229 0.323631   
     length 2.76968  
     axis 0 0 0  XYZ 
  end
  begin
     id 7 
     name rfemur
     direction -0.34202 -0.939693 0   
     length 7.92547   
     axis 0 0 -20   XYZ
    dof rx ry rz
    limits (-160.0 20.0)
           (-70.0 70.0)
           (-70.0 60.0)
  end
  begin
     id 8 
     name rtibia
     direction -0.342022 -0.939692 0   
     length 7.22641   
     axis 0 0 -20   XYZ
    dof rx
    limits (-10.0 170.0)
 end
 begin
     id 9 
     name rfoot
     direction -0.105675 -0.29034 0.951071   
     length 2.48149  
     axis -90 -7.62852e-016 -20   XYZ
    dof rx rz
    limits (-45.0 90.0)
           (-20.0 70.0)
  end
  begin
     id 10 
     name rtoes
     direction -1.5349e-011 -4.21859e-011 1   
     length 1.23343   
     axis -90 -7.62852e-016 -20   XYZ
    dof rx
    limits (-90.0 20.0)
  end
  begin
     id 11 
     name lowerback
     direction 0.0104173 0.993624 -0.112266   
     length 2.00527   
     axis 0 0 0   XYZ
    dof rx ry rz
    limits (-20.0 45.0)
           (-30.0 30.0)
           (-30.0 30.0)
  end
  begin
     id 12 
     name upperback
     direction 0.00733149 0.999856 -0.0152913   
     length 2.01385   
     axis 0 0 0   XYZ
    dof rx ry rz
    limits (-20.0 45.0)
           (-30.0 30.0)
           (-30.0 30.0)
  end
  begin
     id 13 
     name thorax
     direction 0.0026304 0.999318 0.036841   
     length 2.03734   
     axis 0 0 0   XYZ
    dof rx ry rz
    limits (-20.0 45.0)
           (-30.0 30.0)
           (-30.0 30.0)
  end
  begin
     id 14 
     name lowerneck
     direction 0.0293154 0.998757 0.0403082   
     length 1.65303   
     axis 0 0 0   XYZ
    dof rx ry rz
    limits (-20.0 45.0)
           (-30.0 30.0)
           (-30.0 30.0)
  end
  begin
     id 15 
     name upperneck
     direction -0.0376619 0.998184 -0.0470083   
     length 1.60926   
     axis 0 0 0   XYZ
    dof rx ry rz
    limits (-20.0 45.0)
           (-30.0 30.0)
           (-30.0 30.0)
  end
  begin
     id 16
     name head
     direction -0.0170133 0.999635 -0.0209778  
     length 1.73625  
     axis 0 0 0   XYZ
    dof rx ry rz
    limits (-20.0 45.0)
           (-30.0 30.0)
           (-30.0 30.0)
  end
  begin
     id 17 
     name lclavicle
     direction 0.919857 0.39181 -0.0186333  
     length 3.75313  
     axis 0 0 0   XYZ
    dof ry rz
    limits (-20.0 10.0)
           (0.0 20.0)
  end
  begin
     id 18 
     name lhumerus
     direction 1 -4.48988e-011 1.44029e-027   
     length 5.49313   
     axis 180 -30 -90   XYZ
    dof rx ry rz
    limits (-60.0 90.0)
           (-90.0 90.0)
           (-90.0 90.0)
  end
  begin
     id 19
     name lradius
     direction 1 -4.48924e-011 7.46281e-027   
     length 3.29037   
     axis 180 -30 -90   XYZ
    dof rx
    limits (-10.0 170.0)
  end
  begin
     id 20
     name lwrist
     direction 1 -4.48955e-011 2.19879e-026   
     length 1.64519   
     axis -1.34358e-014 90 90   XYZ
    dof ry
    limits (-180.0 0.0)
 end
  begin
     id 21 
     name lhand
     direction 1 -4.48978e-011 4.39747e-026   
     length 0.729656   
     axis -2.80598e-014 90 90   XYZ
    dof rx rz
    limits (-90.0 90.0)
           (-45.0 45.0)
  end
  begin
     id 22 
     name lfingers
     direction 1 -4.49071e-011 8.79411e-026   
     length 0.588268   
     axis -5.61193e-014 90 90   XYZ
    dof rx
    limits (0.0 90.0)
  end
  begin
     id 23
     name lthumb
     direction 0.707107 -6.34817e-011 0.707107   
     length 0.844638   
     axis -90 45 -9.86923e-015   XYZ
    dof rx rz
    limits (-45.0 45.0)
           (-45.0 45.0)
  end
  begin
     id 24 
     name rclavicle
     direction -0.919898 0.388279 0.0550233   
     length 3.7171  
     axis 0 0 0   XYZ 
    dof ry rz
    limits (-10.0 20.0)
           (-20.0 0.0)
  end
  begin
     id 25 
     name rhumerus
     direction -1 -4.48968e-011 9.98372e-028  
     length 5.23684   
     axis 180 30 90   XYZ
    dof rx ry rz
    limits (-90.0 60.0)
           (-90.0 90.0)
           (-90.0 90.0)
  end
  begin
     id 26 
     name rradius
     direction -1 -4.48956e-011 1.01023e-026   
     length 3.38251   
     axis 180 30 90   XYZ
    dof rx
    limits (-10.0 170.0)
  end
  begin
     id 27 
     name rwrist
     direction -1 -4.4892e-011 2.19886e-026   
     length 1.69126   
     axis -1.34358e-014 -90 -90   XYZ
    dof ry
    limits (-180.0 0.0)
  end
  begin
     id 28
     name rhand
     direction -1 -4.49024e-011 4.39727e-026   
     length 0.691454   
     axis -2.80598e-014 -90 -90   XYZ
    dof rx rz
    limits (-90.0 90.0)
           (-45.0 45.0)
  end
  begin
     id 29
     name rfingers
     direction -1 -4.49097e-011 8.79388e-026   
     length 0.557468   
     axis -5.61193e-014 -90 -90   XYZ
    dof rx
    limits (0.0 90.0)
  end
  begin
     id 30
     name rthumb
     direction -0.707107 -6.34938e-011 0.707107   
     length 0.800416   
     axis -90 -45 9.86923e-015   XYZ
    dof rx rz
    limits (-45.0 45.0)
           (-45.0 45.0)
  end
:hierarchy
  begin
    root lhipjoint rhipjoint lowerback
    lhipjoint lfemur
    lfemur ltibia
    ltibia lfoot
    lfoot ltoes
    rhipjoint rfemur
    rfemur rtibia
    rtibia rfoot
    rfoot rtoes
    lowerback upperback
    upperback thorax
    thorax lowerneck lclavicle rclavicle
    lowerneck upperneck
    upperneck head
    lclavicle lhumerus
    lhumerus lradius
    lradius lwrist
    lwrist lhand lthumb
    lhand lfingers
    rclavicle rhumerus
    rhumerus rradius
    rradius rwrist
    rwrist rhand rthumb
    rhand rfingers
  end

#!OML:ASF H:\BabyWalks\Project 1\Capture day 1\Session 1\baby.ASF
:FULLY-SPECIFIED
:DEGREES
303
root -18.5261 17.069 -1.44022 -41.4525 83.7339 -45.1956
lowerback 20.0026 -0.652111 3.37177
upperback 6.10263 0.467149 3.80524
thorax -4.59345 0.391129 2.02726
lowerneck 0.466098 1.87791 10.782
upperneck -1.8254 2.49008 -14.4019
head -0.280106 1.31524 -6.14266
rclavicle 2.10712e-014 1.19271e-014
rhumerus -46.3371 9.22124 -79.8237
rradius 39.5044
rwrist 3.85906
rhand -12.6467 -17.5573
rfingers 7.12502
rthumb 13.4338 -47.1041
lclavicle 2.10712e-014 1.19271e-014
lhumerus -48.4338 -7.3509 81.6269
lradius 53.2934
lwrist -1.22055
lhand -12.1669 7.53275
lfingers 7.12502
lthumb 13.8962 37.0485
rfemur -20.7371 9.84544 24.8366
rtibia 41.4171
rfoot -23.1892 9.81048
rtoes 5.56083
lfemur -22.5657 5.48706 -7.58506
ltibia 69.349
lfoot -17.9253 -25.9891
ltoes -5.32218
304
root -18.4008 17.076 -1.43747 -40.2297 83.6294 -43.919
lowerback 20.0677 -0.490197 3.39995
upperback 6.05713 0.685611 3.79476
thorax -4.67856 0.495832 1.94904
lowerneck 0.388583 1.96295 10.7819
upperneck -1.48059 2.62854 -14.2988
head -0.15157 1.37515 -6.10513
rclavicle -8.74653e-015 -3.97569e-014
rhumerus -46.1063 8.98722 -79.6464
rradius 39.6566
rwrist 3.89631
rhand -13.4703 -17.6455
rfingers 7.12502
rthumb 12.6398 -47.243
lclavicle -8.74653e-015 -3.97569e-014
lhumerus -48.8422 -7.09746 81.8906
lradius 51.589
lwrist -1.77462
lhand -10.1704 6.72746
lfingers 7.12502
lthumb 15.8196 36.1011
rfemur -20.0893 9.8566 24.8736
rtibia 41.1947
rfoot -23.532 9.96409
rtoes 5.80075
lfemur -23.5066 5.77537 -7.65522
ltibia 69.4521
lfoot -18.2294 -25.947
ltoes -5.76591
305
root -18.2753 17.0879 -1.43673 -38.5934 83.5504 -42.242
lowerback 20.1416 -0.330403 3.37403
upperback 6.00819 0.887514 3.74699
thorax -4.77163 0.591766 1.86494
lowerneck 0.317202 2.04883 10.7651
upperneck -1.19063 2.76326 -14.1852
head -0.0408328 1.43453 -6.06193
rclavicle -2.38542e-014 -2.06736e-014
rhumerus -45.8934 8.75636 -79.5059
rradius 39.8622
rwrist 3.84292
rhand -14.2368 -17.711
rfingers 7.12502
rthumb 11.9008 -47.3527
lclavicle -2.38542e-014 -2.06736e-014
lhumerus -49.2616 -6.79888 82.0598
lradius 50.0231
lwrist -2.28425
lhand -7.8679 5.99179
lfingers 7.12502
lthumb 18.0359 35.1755
rfemur -19.4141 9.89545 24.8355
rtibia 40.8824
rfoot -23.826 10.1019
rtoes 6.02139
lfemur -24.3987 6.01136 -7.84204
ltibia 69.2404
lfoot -18.5547 -25.8257
ltoes -6.13147
306
root -18.1488 17.1045 -1.43777 -36.649 83.4844 -40.2678
lowerback 20.2157 -0.174794 3.31155
upperback 5.95712 1.07288 3.66157
thorax -4.86651 0.679088 1.76455
lowerneck 0.259377 2.13088 10.7449
upperneck -0.956352 2.88855 -14.0673
head 0.0501393 1.49064 -6.01738
rclavicle 1.78906e-014 6.36111e-015
rhumerus -45.7081 8.53797 -79.4181
rradius 40.1216
rwrist 3.66868
rhand -14.9309 -17.7702
rfingers 7.12502
rthumb 11.2314 -47.4495
lclavicle 1.78906e-014 6.36111e-015
lhumerus -49.7013 -6.48315 82.1383
lradius 48.6133
lwrist -2.78915
lhand -5.30307 5.45286
lfingers 7.12502
lthumb 20.5022 34.3903
rfemur -18.704 9.96566 24.7395
rtibia 40.4774
rfoot -24.075 10.2181
rtoes 6.19845
lfemur -25.2285 6.1887 -8.12156
ltibia 68.7255
lfoot -18.8979 -25.6086
ltoes -6.41529
307
root -18.0213 17.1253 -1.43997 -34.5732 83.4257 -38.1742
lowerback 20.2856 -0.0263132 3.22462
upperback 5.90423 1.24056 3.54473
thorax -4.96054 0.757409 1.64805
lowerneck 0.211865 2.2072 10.7203
upperneck -0.767552 3.00239 -13.9383
head 0.124442 1.54211 -5.96915
rclavicle -5.96354e-015 -1.51076e-014
rhumerus -45.5562 8.34635 -79.3925
rradius 40.4365
rwrist 3.3547
rhand -15.553 -17.8066
rfingers 7.12502
rthumb 10.6313 -47.5177
lclavicle -5.96354e-015 -1.51076e-014
lhumerus -50.1627 -6.1771 82.1432
lradius 47.3689
lwrist -3.33665
lhand -2.55622 5.21703
lfingers 7.12502
lthumb 23.1398 33.8473
rfemur -17.9591 10.07 24.6082
rtibia 39.9785
rfoot -24.2765 10.2965
rtoes 6.32083
lfemur -25.9991 6.29938 -8.46471
ltibia 67.926
lfoot -19.2654 -25.2895
ltoes -6.63363
308
root -17.8926 17.1494 -1.44286 -32.6157 83.3627 -36.2134
lowerback 20.3442 0.109237 3.13593
upperback 5.85208 1.3884 3.40894
thorax -5.04696 0.82594 1.51661
lowerneck 0.166733 2.27904 10.685
upperneck -0.613716 3.10679 -13.7948
head 0.18651 1.58948 -5.91488
rclavicle 6.36111e-015 6.36111e-015
rhumerus -45.4301 8.20139 -79.4312
rradius 40.7998
rwrist 2.89331
rhand -16.0835 -17.8333
rfingers 7.12502
rthumb 10.1196 -47.5699
lclavicle 6.36111e-015 6.36111e-015
lhumerus -50.6404 -5.88947 82.0902
lradius 46.2792
lwrist -3.97177
lhand 0.267742 5.30198
lfingers 7.12502
lthumb 25.8468 33.5656
rfemur -17.1795 10.212 24.478
rtibia 39.3846
rfoot -24.4248 10.3277
rtoes 6.39125
lfemur -26.7155 6.33864 -8.82541
ltibia 66.867
lfoot -19.6504 -24.8714
ltoes -6.77794
309
root -17.7624 17.1764 -1.44596 -30.9004 83.3 -34.5094
lowerback 20.3859 0.23249 3.06002
upperback 5.79747 1.52012 3.25643
thorax -5.126 0.886423 1.36365
lowerneck 0.129341 2.33976 10.6421
upperneck -0.482451 3.19408 -13.6278
head 0.237934 1.62885 -5.85245
rclavicle 1.47101e-014 3.97569e-015
rhumerus -45.3453 8.0933 -79.5349
rradius 41.2077
rwrist 2.30995
rhand -16.5146 -17.8503
rfingers 7.12502
rthumb 9.70367 -47.6068
lclavicle 1.47101e-014 3.97569e-015
lhumerus -51.1372 -5.6573 81.9984
lradius 45.3355
lwrist -4.7067
lhand 3.06545 5.6688
lfingers 7.12502
lthumb 28.5231 33.5136
rfemur -16.3629 10.3863 24.3644
rtibia 38.6961
rfoot -24.5239 10.2934
rtoes 6.36939
lfemur -27.3828 6.30594 -9.18527
ltibia 65.5719
lfoot -20.0537 -24.3533
ltoes -6.88748
310
root -17.6308 17.2055 -1.44892 -29.4887 83.2408 -33.1252
lowerback 20.4088 0.342658 2.99438
upperback 5.74314 1.63509 3.09624
thorax -5.1939 0.93875 1.20068
lowerneck 0.075325 2.38927 10.5847
upperneck -0.352544 3.264 -13.4366
head 0.288755 1.65906 -5.78004
rclavicle 1.27222e-014 1.43125e-014
rhumerus -45.2859 8.03759 -79.6963
rradius 41.6417
rwrist 1.63843
rhand -16.8362 -17.8552
rfingers 7.12502
rthumb 9.39337 -47.6258
lclavicle 1.27222e-014 1.43125e-014
lhumerus -51.644 -5.4808 81.8864
lradius 44.5292
lwrist -5.52348
lhand 5.75085 6.27226
lfingers 7.12502
lthumb 31.0859 33.6573
rfemur -15.5146 10.5968 24.2771
rtibia 37.9186
rfoot -24.5782 10.1924
rtoes 6.31268
lfemur -28.0029 6.1979 -9.52458
ltibia 64.0678
lfoot -20.4685 -23.7474
ltoes -6.96725
311
root -17.4977 17.236 -1.45157 -28.4794 83.1882 -32.1609
lowerback 20.4057 0.438259 2.94729
upperback 5.68965 1.73357 2.93711
thorax -5.24633 0.983149 1.03254
lowerneck 0.0210386 2.42864 10.501
upperneck -0.232014 3.31865 -13.2133
head 0.333868 1.68184 -5.69351
rclavicle -1.39149e-014 -6.36111e-015
rhumerus -45.2558 8.04339 -79.9077
rradius 42.0988
rwrist 0.918688
rhand -17.0415 -17.8619
rfingers 7.12502
rthumb 9.1953 -47.6414
lclavicle -1.39149e-014 -6.36111e-015
lhumerus -52.1569 -5.3628 81.7703
lradius 43.8499
lwrist -6.3687
lhand 8.2471 7.01952
lfingers 7.12502
lthumb 33.4619 33.9211
rfemur -14.6368 10.8356 24.2309
rtibia 37.0576
rfoot -24.5911 10.0209
rtoes 6.19168
lfemur -28.5814 6.01345 -9.82229
ltibia 62.3789
lfoot -20.8738 -23.0753
ltoes -6.98909
312
root -17.3634 17.2675 -1.45363 -27.8785 83.1472 -31.627
lowerback 20.3779 0.522627 2.91911
upperback 5.6342 1.82029 2.78062
thorax -5.28707 1.02181 0.859726
lowerneck -0.0468269 2.45391 10.3972
upperneck -0.105986 3.3527 -12.9555
head 0.379244 1.69392 -5.59302
rclavicle 3.63776e-014 2.26615e-014
rhumerus -45.2554 8.10208 -80.1622
rradius 42.5689
rwrist 0.189778
rhand -17.1366 -17.8499
rfingers 7.12502
rthumb 9.10352 -47.6334
lclavicle 3.63776e-014 2.26615e-014
lhumerus -52.6691 -5.31463 81.6584
lradius 43.2911
lwrist -7.15708
lhand 10.504 7.83679
lfingers 7.12502
lthumb 35.6042 34.2496
rfemur -13.7628 11.0992 24.228
rtibia 36.1734
rfoot -24.5897 9.78912
rtoes 6.04768
lfemur -29.1396 5.76082 -10.0725
ltibia 60.5568
lfoot -21.2812 -22.3413
ltoes -6.99762
